<?xml version="1.0" encoding="iso-8859-1"?>
<!-- Generator: Adobe Illustrator 30.2.1, SVG Export Plug-In . SVG Version: 9.03 Build 0)  -->
<svg version="1.1" id="Laag_1" xmlns="http://www.w3.org/2000/svg" xmlns:xlink="http://www.w3.org/1999/xlink" x="0px" y="0px"
	 width="2834.646px" height="2834.646px" viewBox="0 0 2834.646 2834.646" enable-background="new 0 0 2834.646 2834.646"
	 xml:space="preserve">
<g>
	<path fill="#FFFFFF" d="M572.643,679.379v717.73H277.607v-717.73H43.565l38.298-275.177h686.524l38.298,275.177H572.643z"/>
	<path fill="#FFFFFF" d="M1708.813,404.202v992.907h-295.036v-363.12h-292.198v363.12H826.544V404.202h295.035v346.099h292.198
		V404.202H1708.813z"/>
	<path fill="#FFFFFF" d="M2250.656,381.507c292.199-5.673,539.008,234.042,533.334,519.149
		c5.673,285.106-241.135,524.824-533.334,519.149c-292.198,5.675-539.006-234.042-533.333-519.149
		C1711.651,615.549,1958.459,375.833,2250.656,381.507z M2250.656,663.776c-131.914,0-232.625,103.546-232.625,236.879
		c0,133.334,100.71,236.88,232.625,236.88c131.916,0,232.624-103.546,232.624-236.88
		C2483.281,767.322,2382.572,663.776,2250.656,663.776z"/>
	<path fill="#FFFFFF" d="M919.45,2430.543l-41.135-455.318l-259.574,455.318l-259.574-455.318l-41.135,455.318H20.159
		l104.965-992.908h269.504l224.113,431.206l224.114-431.206h269.504l104.964,992.908H919.45z"/>
	<path fill="#FFFFFF" d="M1807.394,2266.004H1510.94l-45.39,164.539h-314.894l333.334-992.908h350.354l333.333,992.908h-314.894
		L1807.394,2266.004z M1740.727,2016.359l-80.852-297.873l-82.269,297.873H1740.727z"/>
	<path fill="#FFFFFF" d="M2140.727,2091.537c113.476,75.177,217.022,110.637,302.128,110.637c60.993,0,85.107-25.532,85.107-55.319
		c0-32.623-21.277-55.318-100.709-82.27l-56.737-18.439c-164.541-52.482-245.39-165.957-245.39-312.056
		c0-181.56,144.68-319.149,358.865-319.149c89.361,0,188.652,22.695,295.035,66.666l-36.879,260.994
		c-110.639-52.482-198.582-79.434-265.249-79.434c-51.064,0-73.759,21.277-73.759,53.902s24.114,55.319,93.617,76.596l56.737,18.439
		c182.978,60.993,260.992,177.305,260.992,313.474c0,168.796-116.312,327.66-365.956,327.66
		c-114.894,0-229.789-32.623-344.681-96.453L2140.727,2091.537z"/>
</g>
<g>
</g>
<g>
</g>
<g>
</g>
<g>
</g>
<g>
</g>
<g>
</g>
</svg>
